<?xml version="1.0" encoding="UTF-8" standalone="no"?>
<svg
   viewBox="0 0 450 300"
   version="1.1"
   id="svg21"
   sodipodi:docname="anel.svg"
   inkscape:version="1.4 (e7c3feb100, 2024-10-09)"
   xmlns:inkscape="http://www.inkscape.org/namespaces/inkscape"
   xmlns:sodipodi="http://sodipodi.sourceforge.net/DTD/sodipodi-0.dtd"
   xmlns="http://www.w3.org/2000/svg"
   xmlns:svg="http://www.w3.org/2000/svg">
  <defs
     id="defs21" />
  <sodipodi:namedview
     id="namedview21"
     pagecolor="#ffffff"
     bordercolor="#000000"
     borderopacity="0.25"
     inkscape:showpageshadow="2"
     inkscape:pageopacity="0.0"
     inkscape:pagecheckerboard="0"
     inkscape:deskcolor="#d1d1d1"
     inkscape:zoom="1.8832611"
     inkscape:cx="303.99397"
     inkscape:cy="142.57184"
     inkscape:window-width="2560"
     inkscape:window-height="1008"
     inkscape:window-x="0"
     inkscape:window-y="0"
     inkscape:window-maximized="1"
     inkscape:current-layer="g21" />
  <!-- Fundo -->
  <rect
     width="450"
     height="300"
     fill="#0a0a0f"
     opacity="0.7"
     id="rect1" />
  <circle
     cx="225.38641"
     cy="151.01971"
     r="65"
     stroke-dasharray="3,3"
     id="circle19"
     style="stroke:#ff0000;stroke-width:2.5;stroke-dasharray:none;fill:none" />
  <!-- Grade de referência - escalada e centralizada -->
  <g
     transform="matrix(1.3,0,0,1.3,225,150)"
     id="g21">
    <line
       x1="-150"
       y1="0"
       x2="150"
       y2="0"
       stroke="#333333"
       stroke-width="0.5"
       id="line1" />
    <line
       x1="0"
       y1="-150"
       x2="0"
       y2="150"
       stroke="#333333"
       stroke-width="0.5"
       id="line2" />
    <circle
       cx="0"
       cy="0"
       r="50"
       fill="none"
       stroke="#333333"
       stroke-width="0.5"
       stroke-dasharray="5, 5"
       id="circle2" />
    <circle
       cx="0"
       cy="0"
       r="100"
       fill="none"
       stroke="#333333"
       stroke-width="0.5"
       stroke-dasharray="5, 5"
       id="circle3" />
    <!-- Ponto central -->
    <circle
       cx="0"
       cy="0"
       r="8"
       fill="#64ffda"
       id="circle4"
       style="stroke:#000000" />
    <text
       x="0"
       y="-10"
       font-family="Arial"
       font-size="14px"
       fill="#e0e0e0"
       text-anchor="middle"
       id="text4">Circulação</text>
    <!-- Campo vetorial (estilo rotacional) -->
    <g
       stroke="#e0e0e0"
       stroke-width="2"
       id="g19">
      <!-- Círculo interno r=50 -->
      <line
         x1="0"
         y1="-50"
         x2="17"
         y2="-47"
         id="line4" />
      <polygon
         points="10,-42 17,-47 8,-52 "
         fill="#e0e0e0"
         id="polygon4" />
      <line
         x1="35"
         y1="-35"
         x2="47"
         y2="-17"
         id="line5" />
      <polygon
         points="37,-20 47,-17 45,-27 "
         fill="#e0e0e0"
         id="polygon5" />
      <line
         x1="50"
         y1="0"
         x2="47"
         y2="17"
         id="line6" />
      <polygon
         points="52,10 47,17 42,8 "
         fill="#e0e0e0"
         id="polygon6" />
      <line
         x1="35"
         y1="35"
         x2="17"
         y2="47"
         id="line7" />
      <polygon
         points="27,45 17,47 20,37 "
         fill="#e0e0e0"
         id="polygon7" />
      <line
         x1="0"
         y1="50"
         x2="-17"
         y2="47"
         id="line8" />
      <polygon
         points="-10,42 -17,47 -8,52 "
         fill="#e0e0e0"
         id="polygon8" />
      <line
         x1="-35"
         y1="35"
         x2="-47"
         y2="17"
         id="line9" />
      <polygon
         points="-37,20 -47,17 -45,27 "
         fill="#e0e0e0"
         id="polygon9" />
      <line
         x1="-50"
         y1="0"
         x2="-47"
         y2="-17"
         id="line10" />
      <polygon
         points="-52,-10 -47,-17 -42,-8 "
         fill="#e0e0e0"
         id="polygon10" />
      <line
         x1="-35"
         y1="-35"
         x2="-17"
         y2="-47"
         id="line11" />
      <polygon
         points="-27,-45 -17,-47 -20,-37 "
         fill="#e0e0e0"
         id="polygon11" />
      <!-- Círculo externo r=80 -->
      <line
         x1="0"
         y1="-80"
         x2="27"
         y2="-75"
         id="line12" />
      <polygon
         points="20,-70 27,-75 17,-82 "
         fill="#e0e0e0"
         id="polygon12" />
      <line
         x1="57"
         y1="-57"
         x2="75"
         y2="-27"
         id="line13" />
      <polygon
         points="63,-30 75,-27 73,-38 "
         fill="#e0e0e0"
         id="polygon13" />
      <line
         x1="80"
         y1="0"
         x2="75"
         y2="27"
         id="line14" />
      <polygon
         points="82,20 75,27 68,17 "
         fill="#e0e0e0"
         id="polygon14" />
      <line
         x1="57"
         y1="57"
         x2="27"
         y2="75"
         id="line15" />
      <polygon
         points="38,73 27,75 30,63 "
         fill="#e0e0e0"
         id="polygon15" />
      <line
         x1="0"
         y1="80"
         x2="-27"
         y2="75"
         id="line16" />
      <polygon
         points="-20,70 -27,75 -17,82 "
         fill="#e0e0e0"
         id="polygon16" />
      <line
         x1="-57"
         y1="57"
         x2="-75"
         y2="27"
         id="line17" />
      <polygon
         points="-63,30 -75,27 -73,38 "
         fill="#e0e0e0"
         id="polygon17" />
      <line
         x1="-80"
         y1="0"
         x2="-75"
         y2="-27"
         id="line18" />
      <polygon
         points="-82,-20 -75,-27 -68,-17 "
         fill="#e0e0e0"
         id="polygon18" />
      <line
         x1="-57"
         y1="-57"
         x2="-27"
         y2="-75"
         id="line19" />
      <polygon
         points="-38,-73 -27,-75 -30,-63 "
         fill="#e0e0e0"
         id="polygon19" />
    </g>
    <!-- Linhas de campo (circulares) -->
    <g
       fill="none"
       stroke="#4fc3f7"
       stroke-width="1"
       id="g20" />
    <path
       style="fill:none;stroke:#000000;stroke-width:1.99567;stroke-dasharray:none"
       d="M -8.4480572,0.14440935 H 7.72601"
       id="path21" />
    <path
       style="fill:none;stroke:#000000;stroke-width:1.9765;stroke-dasharray:none"
       d="M -0.07276677,-7.6570848 -0.36046519,7.6570743"
       id="path22" />
  </g>
</svg>
